<?xml version="1.0" encoding="utf-8"?>
<!-- Generator: Adobe Illustrator 24.0.0, SVG Export Plug-In . SVG Version: 6.00 Build 0)  -->
<svg version="1.1" xmlns="http://www.w3.org/2000/svg" xmlns:xlink="http://www.w3.org/1999/xlink" x="0px" y="0px"
	 viewBox="0 0 5000 5000" style="enable-background:new 0 0 5000 5000;" xml:space="preserve">
<style type="text/css">
	.st0{fill:#FFFFFF;}
</style>
<g id="place-8">
	<g>
		<rect x="2182.3" y="4199.8" class="st0" width="2775.3" height="706.9"/>
		<path d="M4957.3,4200.1v706.3H2182.7v-706.3H4957.3 M4958,4199.4H2182V4907h2776V4199.4L4958,4199.4z"/>
	</g>
</g>
<g id="place-7">
	<g>
		<rect x="64.4" y="3379.8" class="st0" width="2034.2" height="1502.8"/>
		<path d="M2098.2,3380.2v1501.9H64.8V3380.2H2098.2 M2099,3379.4H64V4883h2035V3379.4L2099,3379.4z"/>
	</g>
</g>
<g id="place-6">
	<g>
		<rect x="4146.2" y="2908.6" class="st0" width="811.5" height="1207.3"/>
		<path d="M4957.5,2908.8v1206.8h-811.1V2908.8H4957.5 M4958,2908.3h-812v1207.8h812V2908.3L4958,2908.3z"/>
	</g>
</g>
<g id="place-5">
	<g>
		<rect x="2182.4" y="2909.4" class="st0" width="1890.3" height="1207.1"/>
		<path d="M4072.3,2909.7v1206.3H2182.7V2909.7H4072.3 M4073,2909H2182v1207.8h1891V2909L4073,2909z"/>
	</g>
</g>
<g id="place-4">
	<g>
		<rect x="64.3" y="2300.3" class="st0" width="1353.5" height="949.5"/>
		<path d="M1417.5,2300.5v948.9H64.5v-948.9H1417.5 M1418,2300H64v950h1354V2300L1418,2300z"/>
	</g>
</g>
<g id="place-3">
	<g>
		<rect x="2569.5" y="959.5" class="st0" width="2388" height="1899"/>
		<path d="M4957,960v1898H2570V960H4957 M4958,959H2569v1900h2389V959L4958,959z"/>
	</g>
</g>
<g id="place-2">
	<g>
		<rect x="2581.2" y="250.2" class="st0" width="976.6" height="623.6"/>
		<path d="M3557.6,250.4v623.3h-976.3V250.4H3557.6 M3558,250h-977v624h977V250L3558,250z"/>
	</g>
</g>
<g id="place-1">
	<g>
		<rect x="111.5" y="250.5" class="st0" width="2388" height="1973"/>
		<path d="M2499,251v1972H112V251H2499 M2500,250H111v1974h2389V250L2500,250z"/>
	</g>
</g>
</svg>
